<svg width="22" height="22" viewBox="0 0 22 22" fill="none" xmlns="http://www.w3.org/2000/svg">
<path id="Vector" d="M8.22628 0.0979552C8.10625 0.0145313 7.95832 -0.0174221 7.81496 0.00911187C7.6716 0.0356459 7.54454 0.118498 7.46168 0.239474L3.30041 6.32199H1.85648C1.36411 6.32199 0.891909 6.51933 0.543751 6.87059C0.195593 7.22185 0 7.69826 0 8.19502C0 8.69178 0.195593 9.1682 0.543751 9.51946C0.891909 9.87072 1.36411 10.0681 1.85648 10.0681H2.25253L3.52044 19.1363C3.63456 19.93 4.02759 20.6558 4.62788 21.1815C5.22817 21.7072 5.99573 21.9977 6.7906 22H15.2122C16.0065 21.997 16.7734 21.7062 17.3732 21.1806C17.9729 20.655 18.3655 19.9295 18.4796 19.1363L19.7475 10.0681H20.1435C20.6359 10.0681 21.1081 9.87072 21.4563 9.51946C21.8044 9.1682 22 8.69178 22 8.19502C22 7.69826 21.8044 7.22185 21.4563 6.87059C21.1081 6.51933 20.6359 6.32199 20.1435 6.32199H18.9774L14.8161 0.239474C14.7309 0.124499 14.6049 0.0472954 14.4645 0.0240755C14.3241 0.000855621 14.1802 0.0334255 14.0631 0.114946C13.946 0.196466 13.8648 0.320596 13.8365 0.461268C13.8081 0.60194 13.8349 0.748212 13.9112 0.869369L17.6352 6.32199H4.64258L8.36655 0.872144C8.40792 0.812086 8.43711 0.74437 8.45246 0.672889C8.4678 0.601408 8.46899 0.527572 8.45596 0.455626C8.44292 0.383679 8.41592 0.315042 8.3765 0.253661C8.33709 0.192279 8.28603 0.139363 8.22628 0.0979552ZM20.9026 8.19502C20.9026 8.39741 20.8229 8.5915 20.6811 8.73461C20.5392 8.87772 20.3469 8.95811 20.1463 8.95811H1.85648C1.65589 8.95811 1.46351 8.87772 1.32167 8.73461C1.17982 8.5915 1.10014 8.39741 1.10014 8.19502C1.10014 7.99264 1.17982 7.79855 1.32167 7.65544C1.46351 7.51233 1.65589 7.43194 1.85648 7.43194H20.1463C20.3469 7.43194 20.5392 7.51233 20.6811 7.65544C20.8229 7.79855 20.9026 7.99264 20.9026 8.19502Z" fill="white"/>
</svg>
